<svg width="322" height="456" viewBox="0 0 322 456" fill="none" xmlns="http://www.w3.org/2000/svg">
<path d="M219.981 108.363H217.556V39.7262C217.556 29.1907 213.507 19.0867 206.299 11.637C199.092 4.18723 189.316 0.00201416 179.123 0.00201416H38.4345C28.2415 0.00201416 18.4661 4.18723 11.2586 11.637C4.0511 19.0867 0.00195312 29.1907 0.00195312 39.7262V416.275C0.00195312 426.811 4.0511 436.915 11.2586 444.365C18.4661 451.814 28.2415 456 38.4345 456H179.123C189.316 456 199.091 451.814 206.299 444.365C213.506 436.915 217.555 426.811 217.555 416.275V157.22H219.98L219.981 108.363Z" fill="#3F3D56"/>
<path d="M180.673 10.3352H162.309C163.154 12.4755 163.476 14.7977 163.248 17.0973C163.02 19.3968 162.249 21.6031 161.001 23.5218C159.754 25.4404 158.069 27.0125 156.095 28.0995C154.122 29.1865 151.919 29.755 149.683 29.755H69.0845C66.8484 29.7548 64.6466 29.1861 62.6731 28.0992C60.6996 27.0123 59.015 25.4404 57.7677 23.5221C56.5205 21.6037 55.7487 19.3977 55.5206 17.0984C55.2924 14.7992 55.6148 12.4772 56.4594 10.3371H39.3042C31.692 10.3371 24.3915 13.4627 19.0089 19.0262C13.6262 24.5898 10.6023 32.1356 10.6023 40.0037V415.998C10.6023 423.866 13.6262 431.412 19.0089 436.976C24.3915 442.539 31.692 445.665 39.3042 445.665H180.668C188.28 445.665 195.581 442.539 200.963 436.976C206.346 431.412 209.37 423.866 209.37 415.998V40.0018C209.37 32.1337 206.346 24.5879 200.963 19.0243C195.581 13.4608 188.28 10.3352 180.668 10.3352H180.673Z" fill="#E9EFF6"/>
<path d="M191.391 84.2654H28.5886V371.735H191.391V84.2654Z" fill="#E9EFF6"/>
<g filter="url(#filter0_d)">
<path d="M110.231 424.653C118.936 424.653 125.992 417.359 125.992 408.362C125.992 399.365 118.936 392.072 110.231 392.072C101.527 392.072 94.4705 399.365 94.4705 408.362C94.4705 417.359 101.527 424.653 110.231 424.653Z" fill="#2F2E41"/>
</g>
<path d="M185.571 402.506L183.771 420.496L193.974 419.256L195.174 404.367L185.571 402.506Z" fill="#FFB9B9"/>
<path d="M158.564 266.028C158.564 266.028 106.348 318.138 139.358 334.267H149.561C149.561 334.267 171.768 296.423 182.571 297.046L185.572 333.027L183.772 405.608L196.976 406.228C196.976 406.228 204.778 369.627 204.178 349.156L217.982 273.472L158.564 266.028Z" fill="#2F2E41"/>
<path d="M142.358 331.786L149.56 334.267C149.56 334.267 177.769 327.443 179.567 328.064L185.151 328.024L184.969 313.175H160.964L142.358 331.786Z" fill="#2F2E41"/>
<path d="M195.174 416.775C195.174 416.775 184.371 411.811 182.57 416.775C180.77 421.738 181.37 436.006 181.37 436.006C182.81 438.867 183.235 442.159 182.57 445.311C181.37 450.274 187.372 452.755 195.174 450.274C202.976 447.793 202.976 441.589 202.976 441.589L195.174 416.775Z" fill="#2F2E41"/>
<path d="M204.177 311.932C204.177 311.932 212.579 306.968 211.979 314.413C211.481 319.329 210.267 324.14 208.377 328.681C208.377 328.681 216.18 349.773 208.377 351.634C200.575 353.495 194.573 349.153 194.573 346.05C194.573 342.948 204.177 311.932 204.177 311.932Z" fill="#2F2E41"/>
<path d="M177.769 141.958L178.969 165.532L189.172 174.835L200.576 158.086V141.337L177.769 141.958Z" fill="#FFB9B9"/>
<path d="M185.571 165.531L178.7 160.254L174.168 167.392L153.761 179.798L165.764 212.056L166.364 243.694C166.364 243.694 144.158 267.267 157.362 270.37C170.566 273.472 217.38 280.295 219.78 274.712C222.181 269.13 216.78 211.436 216.78 211.436L218.58 162.428L200.576 155.699L185.571 165.531Z" fill="#6C63FF"/>
<path d="M148.96 204.821C148.96 204.821 144.158 239.971 153.161 239.971C158.508 239.99 163.807 238.937 168.766 236.87L161.564 217.638L164.564 204.611L148.96 204.821Z" fill="#FFB9B9"/>
<path d="M162.764 235.631L169.366 236.872C169.366 236.872 188.572 224.466 189.772 223.844C190.973 223.222 170.566 212.677 170.566 212.677L156.762 218.261L162.764 235.631Z" fill="#FFB9B9"/>
<path opacity="0.1" d="M170.566 212.677L161.898 216.183L164.565 204.613L148.96 204.82C148.96 204.82 144.159 239.971 153.162 239.971C158.509 239.989 163.808 238.936 168.767 236.869L168.721 236.747L169.367 236.869C169.367 236.869 188.573 224.463 189.773 223.841C190.973 223.22 170.566 212.677 170.566 212.677Z" fill="black"/>
<path d="M191.653 153.72C201.119 153.72 208.792 145.789 208.792 136.006C208.792 126.223 201.119 118.292 191.653 118.292C182.188 118.292 174.515 126.223 174.515 136.006C174.515 145.789 182.188 153.72 191.653 153.72Z" fill="#FFB9B9"/>
<path d="M176.501 116.022L173.152 114.636C173.152 114.636 180.154 106.669 189.895 107.362L187.155 104.244C187.155 104.244 193.852 101.473 199.94 108.747C203.14 112.569 206.843 117.066 209.154 122.129H212.74L211.243 125.535L216.48 128.943L211.103 128.331C211.613 131.272 211.438 134.296 210.595 137.153L210.739 139.847C210.739 139.847 204.507 129.881 204.507 128.495V131.96C204.507 131.96 201.158 128.842 201.158 126.763L199.332 129.188L198.416 125.372L187.153 129.182L188.979 126.064L181.978 127.104L184.718 123.294C184.718 123.294 176.803 127.797 176.498 131.607C176.193 135.418 172.237 140.267 172.237 140.267L170.41 136.803C170.41 136.803 167.673 121.218 176.501 116.022Z" fill="#2F2E41"/>
<path d="M206.577 194.067C203.548 197.935 201.858 202.739 201.776 207.715L169.966 206.474C169.966 206.474 161.563 205.234 161.563 211.437V217.64C161.563 217.64 165.765 215.779 168.165 217.64C170.566 219.501 196.374 235.631 208.978 229.427C221.582 223.224 224.582 199.03 224.582 199.03C224.582 199.03 213.179 189.104 206.577 194.067Z" fill="#FFB9B9"/>
<path d="M213.782 163.049L218.584 162.429C218.584 162.429 228.187 163.669 226.986 182.901C225.786 202.132 225.186 203.372 225.186 203.372C225.186 203.372 212.582 191.585 203.58 197.169L213.782 163.049Z" fill="#6C63FF"/>
<path d="M156.162 179.801H153.761C150.651 183.862 148.959 188.89 148.96 194.069C148.905 199.616 148.199 205.136 146.859 210.508L165.765 207.097L156.162 179.801Z" fill="#6C63FF"/>
<path d="M142 118H32V153.564H142V118Z" fill="#E6E6E6"/>
<path d="M34.3452 149.725H139.655V121.843H34.3452V149.725Z" fill="white"/>
<path d="M43.5637 124.929C44.8468 124.929 46.1011 125.552 47.1679 126.719C48.2347 127.886 49.0662 129.545 49.5572 131.487C50.0482 133.428 50.1767 135.564 49.9264 137.624C49.6761 139.685 49.0582 141.578 48.151 143.064C47.2437 144.55 46.0878 145.561 44.8293 145.971C43.5709 146.381 42.2665 146.171 41.0811 145.367C39.8957 144.563 38.8826 143.201 38.1697 141.454C37.4569 139.707 37.0764 137.653 37.0764 135.552C37.0764 132.734 37.7599 130.032 38.9765 128.04C40.1931 126.048 41.8432 124.929 43.5637 124.929V124.929Z" fill="#24D9A3"/>
<path d="M123.103 131.395H59.0769V133.704H123.103V131.395Z" fill="#C8CC17"/>
<path d="M123.103 137.399H59.0769V139.709H123.103V137.399Z" fill="#DD8A28"/>
<path d="M137 252H51.2373V276.564H137V252Z" fill="#E6E6E6"/>
<path d="M45 272.64H127.106V253.381H45V272.64Z" fill="white"/>
<path d="M60.253 256.786C61.2533 256.786 62.2312 257.216 63.063 258.022C63.8948 258.828 64.543 259.974 64.9259 261.315C65.3087 262.656 65.4089 264.131 65.2137 265.555C65.0185 266.978 64.5368 268.285 63.8295 269.312C63.1221 270.338 62.2209 271.037 61.2397 271.32C60.2586 271.603 59.2416 271.458 58.3174 270.902C57.3932 270.347 56.6032 269.406 56.0475 268.2C55.4917 266.993 55.1951 265.574 55.1951 264.123C55.1951 262.177 55.728 260.311 56.6765 258.935C57.625 257.559 58.9115 256.786 60.253 256.786V256.786Z" fill="#52D132"/>
<path d="M122.266 261.252H72.3481V262.847H122.266V261.252Z" fill="#41BCE3"/>
<path d="M126.884 264.433H76.9661V266.028H126.884V264.433Z" fill="#D03ADD"/>
<path d="M144 189H34V224.564H144V189Z" fill="#E6E6E6"/>
<path d="M36.3452 220.725H141.655V192.843H36.3452V220.725Z" fill="white"/>
<path d="M45.5637 195.929C46.8468 195.929 48.1011 196.552 49.1679 197.719C50.2347 198.886 51.0662 200.545 51.5572 202.487C52.0482 204.428 52.1767 206.564 51.9264 208.624C51.6761 210.685 51.0582 212.578 50.151 214.064C49.2437 215.55 48.0878 216.561 46.8293 216.971C45.5709 217.381 44.2665 217.171 43.0811 216.367C41.8957 215.563 40.8826 214.201 40.1697 212.454C39.4569 210.707 39.0764 208.653 39.0764 206.552C39.0764 203.734 39.7599 201.032 40.9765 199.04C42.1931 197.048 43.8432 195.929 45.5637 195.929V195.929Z" fill="#2D66BC"/>
<path d="M125.103 202.395H61.0769V204.704H125.103V202.395Z" fill="#FD6A00"/>
<path d="M125.103 208.399H61.0769V210.709H125.103V208.399Z" fill="#18F32E"/>
<defs>
<filter id="filter0_d" x="90.4705" y="392.072" width="39.5219" height="40.5813" filterUnits="userSpaceOnUse" color-interpolation-filters="sRGB">
<feFlood flood-opacity="0" result="BackgroundImageFix"/>
<feColorMatrix in="SourceAlpha" type="matrix" values="0 0 0 0 0 0 0 0 0 0 0 0 0 0 0 0 0 0 127 0" result="hardAlpha"/>
<feOffset dy="4"/>
<feGaussianBlur stdDeviation="2"/>
<feComposite in2="hardAlpha" operator="out"/>
<feColorMatrix type="matrix" values="0 0 0 0 0 0 0 0 0 0 0 0 0 0 0 0 0 0 0.25 0"/>
<feBlend mode="normal" in2="BackgroundImageFix" result="effect1_dropShadow"/>
<feBlend mode="normal" in="SourceGraphic" in2="effect1_dropShadow" result="shape"/>
</filter>
</defs>
</svg>
