<svg width="22" height="18" viewBox="0 0 22 18" fill="none" xmlns="http://www.w3.org/2000/svg">
<path d="M5.48596 14.129C3.64095 12.819 2.18094 11.115 1.35593 10.039C1.12523 9.74199 1 9.37661 1 9.00052C1 8.62442 1.12523 8.25904 1.35593 7.96201C2.84894 6.01301 6.43097 2 10.613 2C12.489 2 14.243 2.807 15.743 3.874" stroke="black" stroke-width="2" stroke-linecap="round" stroke-linejoin="round"/>
<path d="M12.7429 6.887C12.4652 6.60467 12.1343 6.38011 11.7694 6.22629C11.4045 6.07246 11.0127 5.99241 10.6167 5.99075C10.2206 5.98909 9.82819 6.06586 9.46198 6.21662C9.09577 6.36738 8.76303 6.58916 8.48296 6.86916C8.20289 7.14916 7.98103 7.48183 7.83017 7.848C7.67932 8.21417 7.60246 8.60658 7.60403 9.0026C7.60559 9.39862 7.68555 9.79041 7.8393 10.1554C7.99304 10.5203 8.21753 10.8513 8.4998 11.129" stroke="black" stroke-width="2" stroke-linecap="round" stroke-linejoin="round"/>
<path d="M2.61279 17L18.6129 1" stroke="black" stroke-width="2" stroke-linecap="round" stroke-linejoin="round"/>
<path d="M8.61279 15.704C9.262 15.8972 9.93546 15.9969 10.6128 16C14.7949 16 18.3769 11.987 19.8699 10.038C20.1005 9.74071 20.2256 9.37509 20.2255 8.99883C20.2253 8.62256 20.0998 8.25707 19.8689 7.96C19.3442 7.27549 18.7813 6.62112 18.1829 6" stroke="black" stroke-width="2" stroke-linecap="round" stroke-linejoin="round"/>
</svg>
