<svg width="39" height="38" viewBox="0 0 39 38" fill="none" xmlns="http://www.w3.org/2000/svg">
<g filter="url(#filter0_d)">
<path d="M13.9297 27.9844L17.3203 24.6094C16.1094 24.375 14.9953 23.9062 13.9781 23.25L13.9297 27.9844Z" fill="#FFE62E"/>
<path d="M25.0703 2.01562L21.6797 5.39063C22.8906 5.625 24.0047 6.09375 25.0219 6.75L25.0703 2.01562" fill="#FFE62E"/>
<path d="M6.08276 20.3906L10.975 20.3438C10.2968 19.3594 9.81245 18.2812 9.57026 17.1094L6.08276 20.3906Z" fill="#FFE62E"/>
<path d="M32.9171 9.60938L28.0249 9.65625C28.6546 10.6406 29.139 11.7188 29.4296 12.8906L32.9171 9.60938Z" fill="#FFE62E"/>
<path d="M6.08276 9.60938L9.57026 12.8906C9.81245 11.7188 10.2968 10.6406 10.975 9.65625L6.08276 9.60938" fill="#FFE62E"/>
<path d="M32.9171 20.3906L29.4296 17.1094C29.1874 18.2812 28.703 19.3594 28.0249 20.3438L32.9171 20.3906Z" fill="#FFE62E"/>
<path d="M13.9297 2.01562L13.9781 6.75C14.9953 6.14063 16.1094 5.67188 17.3203 5.39063L13.9297 2.01562" fill="#FFE62E"/>
<path d="M25.0703 27.9844L25.0219 23.25C24.0047 23.9062 22.8906 24.375 21.6797 24.6094L25.0703 27.9844Z" fill="#FFE62E"/>
<path d="M11.1687 20.625L9.2312 24.9844L13.7359 23.1094C12.7187 22.4062 11.8468 21.5625 11.1687 20.625Z" fill="#FFCE31"/>
<path d="M27.8313 9.375L29.7688 5.01562L25.3125 6.89063C26.2813 7.59375 27.1531 8.4375 27.8313 9.375Z" fill="#FFCE31"/>
<path d="M9.52187 13.2656L4.96875 15L9.52187 16.7344C9.37656 16.1719 9.32812 15.6094 9.32812 15C9.32812 14.3906 9.37656 13.8281 9.52187 13.2656Z" fill="#FFCE31"/>
<path d="M29.478 16.7344L34.0312 15L29.478 13.2656C29.5749 13.8281 29.6718 14.4375 29.6718 15C29.6718 15.6094 29.6233 16.1719 29.478 16.7344Z" fill="#FFCE31"/>
<path d="M13.6876 6.9375L9.18286 5.0625L11.1204 9.42188C11.8469 8.4375 12.7188 7.59375 13.6876 6.9375Z" fill="#FFCE31"/>
<path d="M25.3125 23.0625L29.8172 24.9375L27.8797 20.5781C27.1531 21.5625 26.2812 22.4062 25.3125 23.0625Z" fill="#FFCE31"/>
<path d="M21.2921 5.34375L19.5 0.9375L17.7078 5.34375C18.289 5.25 18.9187 5.15625 19.5 5.15625C20.0812 5.15625 20.7109 5.20313 21.2921 5.34375Z" fill="#FFCE31"/>
<path d="M17.7078 24.6562L19.5 29.0625L21.2921 24.6562C20.7109 24.7969 20.1296 24.8438 19.5 24.8438C18.8703 24.8438 18.289 24.7969 17.7078 24.6562Z" fill="#FFCE31"/>
<path d="M19.5 23.9062C24.5827 23.9062 28.7031 19.9188 28.7031 15C28.7031 10.0812 24.5827 6.09375 19.5 6.09375C14.4173 6.09375 10.2969 10.0812 10.2969 15C10.2969 19.9188 14.4173 23.9062 19.5 23.9062Z" fill="#FFCE31"/>
<rect x="4.5" y="0.5" width="30" height="29" rx="14.5" stroke="#F1EDED" shape-rendering="crispEdges"/>
</g>
<defs>
<filter id="filter0_d" x="0" y="0" width="39" height="38" filterUnits="userSpaceOnUse" color-interpolation-filters="sRGB">
<feFlood flood-opacity="0" result="BackgroundImageFix"/>
<feColorMatrix in="SourceAlpha" type="matrix" values="0 0 0 0 0 0 0 0 0 0 0 0 0 0 0 0 0 0 127 0" result="hardAlpha"/>
<feOffset dy="4"/>
<feGaussianBlur stdDeviation="2"/>
<feComposite in2="hardAlpha" operator="out"/>
<feColorMatrix type="matrix" values="0 0 0 0 0 0 0 0 0 0 0 0 0 0 0 0 0 0 0.25 0"/>
<feBlend mode="normal" in2="BackgroundImageFix" result="effect1_dropShadow"/>
<feBlend mode="normal" in="SourceGraphic" in2="effect1_dropShadow" result="shape"/>
</filter>
</defs>
</svg>
